<svg width="1404" height="349" viewBox="0 0 1404 349" fill="none" xmlns="http://www.w3.org/2000/svg">
<path d="M29.5091 204.333C21.425 189.862 15.4643 178.745 20.0927 161.723C26.4828 138.223 46.0855 134.806 59.571 117.896C65.548 110.402 68.7389 101.366 72.4796 92.6096C79.9926 75.0217 91.6609 58.7504 108.686 49.3116C125.244 40.0483 144.853 37.9028 163.022 43.3661C172.071 45.9911 180.545 50.2931 188.003 56.0486C188.695 56.5886 195.003 62.1925 195.071 62.2149C205.787 65.7523 213.33 70.079 219.323 81.02C224.225 90.0325 225.353 100.619 222.461 110.462C219.76 119.52 213.729 127.029 205.491 131.935C202.819 133.525 198.985 133.051 198.005 136.564C196.842 140.72 197.948 145.626 198.799 149.657C210.982 143.578 222.948 141.074 236.309 145.628C246.155 148.895 254.279 155.976 258.862 165.284C263.122 174.159 263.513 185.114 260.211 194.349C258.725 198.527 256.483 202.398 253.603 205.77C249.563 210.473 246.147 212.226 244.163 218.179C248.67 221.447 250.057 224.997 252.178 230.023C249.711 226.624 247.481 223.385 243.806 221.197C233.124 214.84 220.345 217.556 210.833 224.744C203.085 230.602 198.624 238.324 193.562 246.368C196.496 248.575 197.419 249.248 199.335 252.522C197.936 251.163 196.872 249.896 195.105 249.132L194.269 249.275C193.448 250.816 194.322 252.971 194.786 254.714C193.844 252.946 192.7 250.648 191.647 248.999C188.546 247.535 178.123 242.015 175.877 241.745C171.11 242.455 165.731 247.976 164.981 252.637C166.78 257.865 168.653 260.912 172.31 265.07C195.022 290.89 215.162 274.588 233.246 254.467C231.103 258.61 229.191 261.474 226.505 265.286C229.59 264.111 232.683 262.956 235.788 261.82C233.759 263.283 232.205 264.217 229.974 265.397C220.987 270.15 216.115 275.991 206.463 280.338L206 280.486C198.301 282.88 191.016 282.8 183.831 278.924C174.801 274.056 166.292 264.504 163.221 254.672C161.288 253.662 159.697 252.519 157.9 251.296C155.397 248.48 154.865 246.864 153.473 243.429L149.944 241.767C146.003 241.38 135.399 234 131.642 231.563C126.108 227.995 120.455 224.614 114.692 221.427C108.723 218.179 104.888 216.531 98.3231 214.599C92.0839 212.735 85.5566 212.026 79.0624 212.507C77.2669 212.652 72.3804 213.322 71.185 212.502C71.0292 211.357 70.9915 211.054 70.4288 209.993C54.6314 217.521 45.3818 228.633 43.2389 246.457C42.0955 255.965 44.0533 263.281 46.7851 272.265C38.1948 261.219 26.5827 254.406 23.5017 240.39C20.8527 228.34 24.1579 219.332 31.251 209.823C35.9289 203.552 32.073 195.102 30.401 188.154C28.2186 178.778 29.8652 168.919 34.9762 160.762C44.502 145.48 59.1978 142.777 71.7185 132.862C85.8142 121.701 93.1296 106.079 113.107 101.327L112.654 100.468C88.3606 107.415 86.9805 117.36 69.3439 130.948C56.9596 140.489 39.4857 144.787 30.7244 161.217C24.9947 171.961 24.8469 181.107 27.2314 192.931C27.9245 196.368 29.1185 200.995 29.5091 204.333Z" fill="#5F3D31"/>
<path d="M201.383 84.9175C207.132 94.5896 208.458 104.228 205.65 115.209C204.784 118.586 203.496 121.841 201.824 124.899C199.335 129.408 195.592 133.013 195.379 138.473C195.231 142.381 195.899 145.826 196.629 149.602C196.865 152.005 199.27 157.216 196.348 158.65C192.783 160.399 188.189 157.736 186.76 163.074C185.639 167.26 185.442 169.768 180.151 167.667C178.016 166.838 175.996 165.739 174.139 164.399C173.607 164.019 173.055 163.647 172.518 163.268C175.349 166.773 177.554 168.721 181.84 170.526C182.448 170.782 182.235 171.936 182.22 172.457C180.877 174.764 177.468 174.991 176.717 176.047C174.074 179.762 176.33 185.715 170.229 187.562C165.326 189.046 157.621 184.925 153.405 182.374C145.207 177.413 138.242 171.468 132.84 163.495C136.333 172.558 138.738 174.101 142.768 181.531C135.045 197.27 136.827 210.326 151.388 221.056C149.416 218.577 145.778 214.034 144.796 210.925C145.008 210.39 145.141 210.033 145.328 209.476C150.488 210.111 162.978 217.711 163.806 223.313C160.718 222.77 158.788 223.112 156.252 225.068C151.566 228.683 146.37 235.994 149.944 241.767C146.003 241.38 135.399 234 131.642 231.563C126.108 227.995 120.455 224.614 114.692 221.427C108.723 218.178 104.888 216.531 98.3231 214.599C92.0838 212.735 85.5566 212.026 79.0623 212.507C77.2668 212.651 72.3804 213.321 71.1849 212.502C71.0291 211.357 70.9915 211.053 70.4287 209.993C76.5194 206.61 82.4793 203.157 87.2844 198.037C88.8474 196.363 90.291 194.581 91.6047 192.704C95.7451 186.787 98.5191 178.563 102.731 173.272C111.847 161.821 119.771 157.21 123.409 142.029C125.415 142.951 127.908 144.456 129.77 142.472L129.621 141.986C125.889 140.577 124.298 140.567 122.089 136.231C120.702 133.509 120.408 130.287 120.435 127.268C123.101 126.434 125.136 125.857 127.854 125.232C128.001 127.54 128.035 130.139 129.41 132.08L129.844 131.883C130.392 128.814 129.944 128.7 131.064 125.495C145.42 129.227 152.313 126.552 162.53 116.123C180.302 112.834 195.098 102.198 201.383 84.9175Z" fill="#FCE9DB"/>
<path d="M181.989 118.05C186.441 117.795 194.068 117.313 196.576 122.452C197.005 123.333 196.621 123.868 196.234 124.611C195.12 124.964 195.671 124.978 194.535 124.465C187.908 119.821 184.172 119.609 176.392 119.483C178.502 118.807 179.837 118.502 181.989 118.05Z" fill="#5F3D31"/>
<path d="M175.931 129.375C180.005 132.353 181.411 133.441 186.091 135.049L186.874 134.584C187.748 132.941 188.159 132.358 189.299 130.877L188.216 134.766C188.421 137.141 189.025 137.783 190.496 139.68C181.784 138.153 180.264 137.155 175.931 129.375Z" fill="#5F3D31"/>
<path d="M186.092 135.049L186.874 134.584C187.748 132.942 188.159 132.358 189.299 130.877L188.216 134.767C187.163 135.215 187.239 135.182 186.092 135.049Z" fill="#715A4E"/>
<path d="M186.103 157.698C188.22 157.168 188.964 157.377 190.963 158.114C189.109 158.318 187.748 158.528 186.103 157.698Z" fill="#715A4E"/>
<path d="M164.981 252.637C160.571 248.913 158.022 249.415 155.134 242.499C154.537 241.067 150.394 238.97 150.869 236.153C153.133 234.804 154.934 236.4 156.196 235.789C154.667 234.037 153.242 234.07 152.444 232.572L152.884 231.862C154.728 230.953 156.225 230.888 158.281 231.029L158.644 231.057C157.591 230.209 156.676 229.835 155.472 229.244L155.348 228.689C157.952 226.314 160.604 228.722 162.215 227.848C161.089 227.128 160.862 227.028 159.884 226.07L160.082 225.657C165.554 225.118 166.513 229.516 168.843 230.068C168.61 228.843 168.534 228.719 168.634 227.44L169.318 227.24C173.258 229.284 175.293 237.18 175.217 241.374L175.877 241.745C171.11 242.455 165.731 247.976 164.981 252.637Z" fill="#FCE9DB"/>
<path d="M120.597 99.2119C117.841 100.137 115.94 100.656 113.107 101.327L112.654 100.468C115.701 99.6493 117.394 99.3996 120.597 99.2119Z" fill="#CDB8AF"/>
<path d="M214.846 146.992C231.703 144.874 248.663 152.438 255.56 167.846C262.878 184.204 256.418 199.627 244.813 211.532C243.388 212.994 242.434 215.515 241.693 217.456C230.92 213.791 222.233 214.518 212.369 220.101C208.743 222.5 206.722 224.325 203.701 227.403C198.267 227.485 191.009 227.992 186.331 224.725C183.591 222.812 183.986 221.104 182.612 218.901C180.148 214.949 177.686 212.114 177.452 207.058C177.354 204.944 179.336 203.32 179.131 201.681C175.073 196.72 178.462 196.578 181.412 193.224C183.91 190.384 181.087 181.115 180.888 177.015L181.264 176.781C182.74 175.848 183.657 175.447 183.952 173.664C184.686 169.267 185.829 171.149 187.95 168.699C188.421 168.156 188.527 165.063 189.078 163.507C193.92 158.247 203.024 165.226 199.376 151.336C204.894 148.836 208.85 147.748 214.846 146.992Z" fill="#FCE9DB"/>
<path d="M229.081 191.36C232.068 190.995 235.153 191.519 236.936 194.254C240.629 199.926 237.224 208.351 231.79 211.631C229.26 213.159 224.776 214.399 223.111 211.061L223.48 211.154C230.928 212.58 237.319 204.663 235.906 197.557C234.572 190.849 226.467 194.463 225.513 193.93C226.801 192.383 227.219 192.306 229.081 191.36Z" fill="#5F3D31"/>
<path d="M190.093 190.967C190.237 191.874 190.393 192.087 190.773 192.936C192.882 194.567 194.786 193.652 197.385 194.29L197.207 194.82L195.592 195.568C193.471 196.181 189.025 196.612 188.379 193.919C189.234 192.738 189.447 192.29 190.093 190.967Z" fill="#5F3D31"/>
<path d="M230.297 196.956C231.3 197.272 231.315 197.322 232.209 197.903C230.521 198.457 228.978 198.259 228.541 200.183C229.13 201.25 229.18 201.252 229.442 202.424C228.644 203.946 228.579 203.633 226.926 204.726L225.965 205.295L225.767 205.054C229.176 201.588 226.486 202.196 227.227 198.979C228.26 197.731 228.762 197.648 230.297 196.956Z" fill="#5F3D31"/>
<path d="M179.34 209.517C179.109 209.502 185.685 210.808 186.692 210.953L187.429 212.369C184.602 212.68 179.826 212.939 179.34 209.517Z" fill="#5F3D31"/>
<path d="M189.865 181.937C191.966 181.711 196.595 182.108 197.131 184.589C193.844 183.07 193.676 183.264 190.245 182.757L189.713 182.68L189.865 181.937Z" fill="#5F3D31"/>
<path d="M109.865 131.167C107.383 133.149 105.213 134.522 102.593 136.291L102.31 135.522C104.59 133.323 106.999 132.385 109.865 131.167Z" fill="#A58F7D"/>
<path d="M38.0701 210.29L38.6633 210.707C37.9109 212.44 37.2964 214.235 36.0675 215.625L35.8247 215.293L36.071 215.659L36.0565 214.291L35.9965 214.493C36.7276 212.73 37.0985 211.925 38.0701 210.29Z" fill="#CDB8AF"/>
<path d="M180.136 92.8781C181.47 91.1951 183.186 88.9113 184.609 87.3765C183.281 89.9867 182.399 91.4679 180.592 93.8258L180.136 92.8781Z" fill="#FCE9DB"/>
<path d="M173.355 330.133C166 331.117 158.573 331.459 151.159 331.151C119.449 329.893 87.563 316.362 65.9356 292.798C55.0995 281.117 47.7735 266.092 48.8591 249.84C49.9497 233.517 58.0472 219.699 75.3718 217.399C102.359 213.818 124.295 232.978 146.038 245.695C148.872 247.353 154.702 251.278 157.9 251.296C159.697 252.518 161.288 253.662 163.221 254.671C166.292 264.504 174.801 274.056 183.831 278.924C191.016 282.8 198.301 282.88 206 280.486L206.463 280.337C211.027 283.461 214.261 284.149 217.32 288.99C210.237 292.03 203.583 294.827 197.427 299.63L196.747 299.805C184.803 308.606 179.562 317.061 173.355 330.133Z" fill="#F0A6A1"/>
<path d="M114.904 241.211C118.388 243.783 122.175 247.844 125.574 250.771C132.911 257.092 140.763 264.176 148.628 269.778C158.127 276.541 168.688 282.788 178.751 288.713C185.138 292.471 191.203 295.401 197.427 299.63L196.747 299.805C174.557 290.818 154.399 281.451 136.655 264.781C129.397 257.962 121.494 248.83 114.904 241.211Z" fill="#FDF8F4"/>
<path d="M403.296 135.787C403.768 136.455 403.95 137.272 404.083 138.081C405.553 147.04 404.774 157.166 400.651 165.294C396.703 173.453 391.121 177.2 383.924 181.97C379.295 185.037 372.805 196.731 369.389 201.716C360.725 214.364 352.722 227.52 344.1 240.183C347.394 237.75 350.807 235.549 354.253 233.378C355.618 232.52 360.136 229.683 360.691 228.518C370.164 208.731 381.283 202.356 403.19 202.693C400.879 209.036 398.178 215.382 393.682 220.515C386.774 228.404 378.159 230.424 368.082 231.145C349.275 232.49 334.242 254.058 323.606 267.88C319.453 273.34 315.117 278.662 310.61 283.838C320.676 278.552 323.872 279.631 332.479 271.063C349.218 254.404 370.103 257.064 389.335 268.077C374.177 278.525 363.005 290.26 342.458 285.095C330.393 282.063 327.764 279.076 315.805 284.624C302.915 290.602 297.048 299.042 287.145 308.709C281.381 314.337 275.32 319.653 268.989 324.638C274.525 322.385 280.366 321.435 285.72 319.087C288.642 317.601 291.394 315.002 293.921 312.934C313.719 296.75 335.101 299.646 355.287 313.227C347.425 317.468 340.323 322.921 333.159 326.58C321.148 332.717 307.411 331.33 295.254 326.242C283.725 321.42 272.831 325.478 261.784 330.791C247.272 338.36 235.579 344.816 218.969 346.903C215.758 347.305 212.357 348.312 209.116 348.138C209.469 347.606 217.362 346.222 218.84 345.782C228.534 342.837 237.844 338.744 246.572 333.595C261.396 324.768 281.168 309.112 291.99 295.34C295.764 290.545 298.785 281.858 300.32 275.994C303.542 263.696 300.301 260.059 294.236 250.069C282.509 230.752 288.053 215.271 293.145 195.295C300.187 200.368 308.269 211.22 311.473 219.353C315.885 230.445 315.687 242.837 310.929 253.785C307.536 261.691 304.371 265.94 303.371 274.953C302.919 279.053 300.236 285.627 298.534 289.522C305.454 283.074 312.039 274.178 318.176 266.966C322.265 262.159 326.517 256.598 329.907 251.285C331.788 248.336 332.893 243.77 333.916 240.461C335.751 232.931 339.316 214.193 333.699 207.874C314.927 186.764 316.067 173.567 323.431 146.624C339.293 158.573 348.557 179.803 343.279 199.21C342.462 202.208 339.563 209.038 339.49 211.77C339.186 223.474 338.274 233.342 335.683 244.779C347.018 229.73 358.183 215.163 368.61 199.366C370.605 196.342 377.954 186.147 378.9 183.237C380.261 179.038 379.417 171.107 380.96 164.924C384.403 151.104 391.535 143.284 403.296 135.787Z" fill="#949A7F"/>
<path d="M191.282 44.5623C205.13 24.0981 228.302 7.45596 252.687 2.88873C277.676 -1.79175 300.913 3.87216 321.881 17.9124C349.154 36.173 364.259 66.868 370.168 98.4343C376.445 132.943 372.246 168.541 358.11 200.642C355.029 207.61 351.624 214.522 347.318 220.824C347.109 221.131 346.897 221.436 346.684 221.741C358.471 184.357 361.169 115.504 342.907 80.5393C330.708 57.1852 309.66 37.0128 284.231 28.9712C260.822 21.5669 235.853 25.0002 214.318 36.3835C207.478 39.9818 201.14 44.4665 195.47 49.7212L190.94 45.1027L191.282 44.5623Z" fill="#F0A6A1"/>
<path d="M256.247 220.286C283.737 254.688 286.381 297.312 250.141 326.713C221.546 349.908 180.984 350.748 145.955 347.381C111.876 343.6 78.853 327.48 57.4631 299.927C54.5652 296.206 51.8942 292.319 49.4649 288.28C48.4195 286.528 45.6059 281.364 44.5571 279.98L44.9554 279.281C48.0383 284.259 53.4328 290.7 57.4517 295.047C76.4001 315.552 99.6238 328.575 126.735 334.784C146.858 339.394 161.136 339.223 181.466 337.136C190.108 316.506 198.753 305.095 220.58 296.187C237.95 289.104 252.934 285.696 261.214 266.336C266.8 253.271 264.759 239.657 259.39 226.876C258.436 224.636 257.387 222.437 256.247 220.286Z" fill="#949A7F"/>
<path d="M19.192 202.43C16.8349 198.084 14.1346 191.507 12.2745 186.906C1.93962 161.346 -2.68499 133.882 1.58394 106.439C6.72041 73.4148 23.54 39.76 50.8165 19.6804C71.9612 4.11439 97.2241 -3.01481 123.221 1.18838C151.696 5.79209 174.427 21.8699 191.282 44.5621L190.94 45.1024C187.695 41.8679 179.434 36.1792 175.48 33.8479C152.295 20.1747 124.919 15.0736 98.6719 22.1964C69.622 30.0799 46.5916 50.5475 31.7621 76.3131C14.5036 106.328 7.87333 141.286 12.9437 175.535C14.5024 185.98 16.467 192.367 19.192 202.43Z" fill="#F0A6A1"/>
<path d="M254.363 236.381C254.534 236.598 254.887 236.979 254.993 237.285C262.225 257.83 252.337 274.417 233.683 282.788C233.303 282.978 232.813 283.092 232.387 283.218C232.577 282.652 236.875 279.714 237.912 278.855C240.428 276.788 242.731 274.474 244.79 271.952C253.523 261.15 255.772 249.838 254.363 236.381Z" fill="#5F3D31"/>
<path d="M44.5572 279.98C43.6547 278.445 43.1382 277.784 42.7267 276.085C43.7272 276.712 44.3045 278.137 44.9554 279.281L44.5572 279.98Z" fill="#CDB8AF"/>
<path d="M1036.84 139.94C1044.5 139.812 1052.15 139.787 1059.81 139.873C1071.98 165.069 1083.1 192.305 1095.52 217.066C1100.31 206.657 1104.72 195.605 1109.3 185.055C1115.98 170.011 1122.59 154.93 1129.12 139.812C1137.2 139.818 1146.62 139.622 1154.58 140.179C1148.32 143.486 1141.48 143.914 1141.66 153.246C1142.15 178.871 1142.95 205.139 1145.19 230.659C1145.63 235.613 1152.96 236.133 1154.61 238.393L1154.13 239.036C1150.18 239.685 1122.21 239.893 1119.45 238.754C1119.94 236.874 1124.85 236.011 1126.54 234.248C1131.2 229.416 1127.84 193.799 1127.34 185.631C1127.19 177.334 1126.66 168.884 1126.49 160.459C1115 186.573 1103.8 212.798 1092.36 238.932C1091.95 239.158 1091.55 239.385 1091.15 239.605C1090.71 239.397 1090.28 239.183 1089.85 238.968C1078.56 217.44 1064.71 182.759 1053.7 162.736C1052.86 173.354 1049.19 226.281 1052.62 232.545C1054.74 236.409 1060.27 237.487 1064.16 238.772C1055.6 240.003 1039.74 239.513 1031.02 239.023C1035.13 236.991 1040.7 236.348 1042.77 231.651C1045.38 225.7 1049.04 155.75 1047.28 150.337C1045.44 144.686 1038.62 144.239 1036.84 139.94Z" fill="#E37979"/>
<path d="M569.329 213.925C569.361 201.501 571.111 152.419 567.404 143.981C566.376 141.642 564.989 139.591 562.499 138.74C560.757 138.14 558.073 137.565 557.135 135.96C560.026 134.858 584.985 134.717 586.82 136.15C584.317 139.757 579.502 138.63 577.333 143.681C574.5 150.27 575.985 212.768 575.951 225.467C575.94 229.459 577.07 236.292 575.49 239.85C575.021 240.909 573.747 241.16 572.739 241.613C569.874 238.803 567.421 235.944 564.736 232.986C542.242 208.194 520.676 182.153 497.742 157.807C497.789 170.923 496.052 222.179 499.708 231.155C501.708 236.072 507.894 237.107 512.35 238.858C502.884 239.936 486.501 239.617 477 239.048C487.184 234.896 491.162 234.89 491.226 221.45C491.343 196.891 492.354 170.831 490.599 146.369C490.256 141.6 480.286 138.171 479.308 135.648C483.977 134.913 494.841 135.281 499.921 135.379L569.329 213.925Z" fill="#949A7F"/>
<path d="M1257.65 185.992C1270.33 172.19 1286.75 167.769 1297.52 186.414C1305.51 176.721 1315.59 170.959 1328.38 175.809C1344.91 182.079 1338.7 207.239 1339.83 220.991C1340.16 225.081 1339.17 229.269 1341.22 233.176C1343 237.009 1345.72 235.723 1347.89 237.976L1347.35 239.158C1344.38 239.776 1320.88 239.764 1318.59 238.729L1318.83 237.701C1324.63 235.796 1326.88 233.268 1326.34 226.557C1325.36 214.188 1329.74 194.809 1321.21 184.994C1315.06 177.915 1304.17 184.289 1299.16 189.763L1298.57 190.425L1298.61 210.943C1298.68 215.199 1298.58 219.693 1298.32 223.936C1297.65 234.835 1301.17 235.6 1309.62 239.097C1304.9 239.642 1282.79 239.764 1278.18 239.103L1277.83 238.558C1279.82 237.046 1281.92 235.503 1283.46 233.506C1286.42 229.667 1285.38 201.477 1284.73 195.617C1284.27 191.521 1282.85 187.192 1279.41 184.632C1276.61 182.563 1272.9 182.079 1269.55 182.808C1264.01 184.02 1260.78 187.204 1257.67 191.729C1257.4 200.564 1256.49 225.032 1258.92 234.125C1259.43 236.023 1265.93 238.037 1268.24 238.846C1262.48 239.819 1238.81 239.611 1232.48 239.121C1234.61 238.062 1242.37 235.564 1242.68 233.702C1244.77 221.26 1244.21 199.248 1242.73 186.598C1242.43 184.093 1235.84 182.25 1233.73 181.552C1241.24 178.864 1248.39 177.046 1256.33 174.058L1257.2 174.805C1257.82 177.67 1257.64 182.844 1257.65 185.992Z" fill="#E37979"/>
<path d="M971.257 172.319C987.801 170.856 1000.89 177.064 1004.88 194.766C1005.52 197.595 1005.12 199.61 1003.41 201.937C999.182 204.869 965.268 203.43 958.056 203.43C958.888 227.524 977.943 240.395 998.462 225.828C1000.14 224.114 1001.28 222.204 1003.7 223.287C1003.87 225.228 1003.64 225.908 1002.53 227.628C992.988 242.452 971.569 244.803 957.529 235.631C941.365 225.075 939.069 202.328 948.921 186.904C954.297 178.485 961.772 174.352 971.257 172.319ZM982.5 181.5C974.9 179.1 964.333 188.5 960 193.5H989C990 190.5 990.1 183.9 982.5 181.5Z" fill="#949A7F"/>
<path d="M851.598 221.72C851.844 214.28 852.579 191.686 850.455 184.369C849.919 182.526 844.388 180.946 842.803 178.963C846.314 177.175 861.389 172.87 866.129 171.352C866.802 184.253 866.391 199.75 866.372 212.835C866.28 218.162 865.737 225.694 867.691 230.666C869.065 234.162 874.333 231.498 875.787 235.754C874.286 237.291 856.189 240.438 852.648 241.087L851.517 228.951C841.593 239.268 829.4 244.902 815.219 238.613C797.325 230.678 806.711 201.948 803.526 186.769C802.311 180.983 796.769 181.693 795.648 178.681C797.543 177.738 812.136 173.427 815.654 172.166C817.254 172.111 816.699 172.043 818.204 172.509C818.94 175.074 818.629 181.13 818.677 184.192C818.903 196.083 817.891 208.108 819.081 219.956C820.071 229.808 829.345 234.615 838.486 231.994C845.162 230.078 848.18 227.635 851.598 221.72Z" fill="#949A7F"/>
<path d="M611.831 172.135C613.326 171.97 612.811 171.927 614.322 172.441C615.112 175.454 614.723 181.246 614.769 184.724C614.944 196.468 614.088 208.127 615.163 219.846C616.098 230.047 624.892 234.364 634.294 231.933C640.785 230.255 644.14 227.579 647.681 221.959C648.084 210.753 648.32 197.785 647.569 186.531C647.35 183.255 641.496 181.081 639.386 179.03C642.588 177.383 657.931 172.833 662.441 171.364C662.979 183.775 662.513 200.222 662.515 212.933C662.484 217.874 661.514 229.312 665.463 232.306C668.086 232.76 670.66 232.998 671.9 235.705C669.582 237.811 652.733 240.285 648.886 240.615C648.5 236.721 648.061 232.833 647.571 228.957C644.114 232.668 639.975 236.115 635.383 238.325C628.377 241.632 620.333 241.975 613.07 239.281C591.314 231.388 604.38 200.099 598.525 183.928C597.631 181.455 591.519 180.126 588.74 179.25C596.914 176.881 603.854 175.252 611.831 172.135Z" fill="#949A7F"/>
<path d="M766.408 153.001C768.766 154.642 767.868 169.411 767.847 172.858C773.214 172.981 784.938 171.107 788.183 175.136C788.18 177.463 788.64 176.66 787.403 177.977C781.995 178.828 773.577 178.442 767.768 178.565C767.69 191.717 767.548 205.084 767.684 218.242C767.729 222.632 768.981 227.751 772.43 230.807C777.087 234.927 784.069 229.564 790.319 228.872L790.833 229.594C789.94 232.068 788.566 233.109 786.684 235.013C768.729 249.114 751.537 238.693 753.06 216.497C753.844 205.071 753.138 190.327 753.112 178.632C750.619 178.62 744.612 178.95 742.963 177.512C742.991 176.887 743.019 176.256 743.047 175.632C746.349 172.827 751.753 168.443 754.668 165.596C758.942 161.42 762.643 157.226 766.408 153.001Z" fill="#949A7F"/>
<path d="M908.639 186.788C913.713 177.621 925.6 166.729 936.093 174.352C942.485 178.748 940.183 190.951 931.996 191.282C926.812 190.804 925.807 181.271 920.087 182.03C917.145 182.361 912.906 185.434 911.554 188.092C906.616 197.791 908.426 215.186 908.53 225.987C908.893 236.831 912.908 235.815 921.898 238.582C913.414 239.93 890.286 239.727 881.718 238.889C884.524 237.615 892.241 235.809 892.647 232.698C894.24 220.477 894.86 196.493 892.249 184.565C891.768 182.373 884.233 180.163 882.384 179.501C890.835 177.089 897.348 175.423 905.548 172.166C907.412 172.203 906.611 171.866 908.088 172.888C909.136 176.654 908.7 182.697 908.639 186.788Z" fill="#949A7F"/>
<path d="M701.904 172.142L703.994 172.227C706.055 174.958 705.257 182.979 705.145 186.788C712.108 176.042 728.369 162.7 736.172 179.11C738.648 184.32 731.966 199.12 723.654 186.635C719.354 180.181 710.758 181.326 707.541 189.317C703.548 199.23 705.051 213.766 705.132 225.026C705.448 236.55 708.489 235.154 718.27 238.797C709.336 239.82 687.128 239.832 678.011 238.883C683.069 236.752 689.584 236.556 690.062 229.576C691.031 215.419 691.018 200.369 689.895 186.243C689.725 184.106 683.327 181.277 681.875 179.152C684.271 177.824 696.457 174.462 700.938 172.558L701.904 172.142Z" fill="#949A7F"/>
<path d="M1374.96 174.217C1381.37 173.893 1390.7 175.424 1397.3 176.269C1398.14 178.626 1399.11 191.313 1398.13 193.676L1397.2 194.001C1394.4 191.631 1393.94 186.659 1389.35 182.722C1385.41 177.91 1374.87 176.611 1370.55 181.981C1363.55 191.16 1374.8 197.234 1382.49 200.253C1397.64 206.198 1411.29 217.513 1397.87 233.917C1393.25 239.587 1385.33 240.805 1378.26 241.154C1369.38 240.83 1365.69 237.468 1357.56 238.987C1356.98 231.903 1355.97 222.112 1356.81 215.334C1360.95 221.163 1362.92 229.888 1369.4 233.727C1388.51 245.055 1402.07 222.418 1378.72 214.035C1365.47 209.284 1350.81 199.891 1359.52 183.604C1362.43 178.148 1369.37 175.601 1374.96 174.217Z" fill="#E37979"/>
<path d="M1249.34 284.867C1259.85 270.747 1265.48 265.928 1283.89 267.882C1273.57 284.518 1268.49 287.849 1250.93 286.943C1249.95 286.894 1234.31 292.925 1231.23 293.819C1245.63 293.843 1250.47 296.874 1260.7 306.598C1251.15 310.1 1243.18 312.586 1232.96 308.294C1226.66 305.655 1222.9 301.105 1217.64 297.64C1213.36 297.933 1207.1 298.16 1203.01 298.717C1200.2 295.833 1197.61 297.97 1192.79 296.856L1192.57 295.827L1193.56 294.633C1198.75 293.935 1204.73 289.612 1206.51 284.757C1198.69 279.877 1189.1 295.196 1185.42 295.668C1193.28 286.061 1196.57 282.858 1209.49 283.085C1204.61 290.071 1203.18 292.478 1195.18 295.992C1203.71 295.821 1210.15 295.472 1218.57 293.862C1226.32 280.317 1229.53 273 1246.62 270.9C1243.97 281.567 1241.2 284.224 1232.67 290.904C1238.28 289.024 1243.83 287.016 1249.34 284.867Z" fill="#949A7F"/>
<path d="M932.78 40L934.017 40.5144C934.06 50.5072 895.715 48.162 889.483 47.9049C879.927 72.5195 868.731 102.259 868.251 128.986C868.114 136.646 871.936 135.673 876.823 135.073L877.232 135.893C876.074 138.746 874.648 140.553 871.081 139.842C855.981 136.836 862.134 112.491 864.387 101.886C869.206 82.941 875.524 65.4535 882.806 47.366C873.767 47.0844 852.146 45.9026 845.281 54.7014C844.532 55.6566 843.683 56.918 842.962 57.9222L841.817 57.9895C840.721 55.0566 842.784 51.4746 845.208 49.8275C870.555 32.5973 906.946 53.8565 932.78 40Z" fill="#5F3D31"/>
<path d="M640.157 270.355C660.214 274.751 658.247 279.013 668.043 293.665C671.837 294.523 687.791 297.137 690.815 295.417C689.933 294.933 688.965 294.37 688.071 293.935C690.907 293.8 691.183 294.045 693.916 295.104L694.635 296.029C691.952 299.097 687.955 296.096 686.016 297.541C684.289 302.795 676.752 301.521 674.97 307.148C679.964 315.433 694.128 302.923 698.112 298.252C700.598 298.313 705.161 298.264 707.412 298.784L699.181 299.182C688.824 309.683 686.205 310.749 671.683 309.72C676.272 302.954 677.748 301.503 685.306 298.478C680 298.313 674.699 298 669.409 297.554C664.196 301.191 660.561 305.679 654.338 308.318C644.451 312.518 635.854 310.057 626.481 306.708C635.947 297.468 640.611 294.774 653.633 293.323L652.024 292.367L653.154 290.132C646.03 284.022 642.987 279.429 640.157 270.355Z" fill="#949A7F"/>
<path d="M929.434 281.217C936.362 280.636 938.621 282.736 942.571 288.198C956.495 271.733 970.492 287.402 954.162 305.03C950.402 308.361 946.967 311.055 942.987 314.135C933.852 307.693 912.999 291.645 929.434 281.217Z" fill="#F0A6A1"/>
<path d="M1185.42 295.668C1189.1 295.196 1198.69 279.876 1206.51 284.756C1204.73 289.612 1198.75 293.935 1193.56 294.633L1192.57 295.827L1192.79 296.855C1197.61 297.97 1200.2 295.833 1203.01 298.717C1209.35 301.135 1211.58 303.97 1215.25 309.322C1214.1 309.524 1212.95 309.708 1211.79 309.867C1198.92 311.636 1195.84 305.997 1186.98 299.231C1166.72 297.853 1145.26 298.478 1124.8 298.484L1025.08 298.515C1017.75 298.509 981.287 299.201 977.711 297.756L977.901 297.1C981.899 296.28 1014.78 296.629 1020.46 296.629L1125.97 296.666C1140.36 296.702 1172.26 297.584 1185.42 295.668Z" fill="#A58F7D"/>
<path d="M688.071 293.935C685.099 293.01 677.963 286.41 678.489 283.238C688.955 281.052 695.203 288.779 701.148 295.588C709.983 297.456 723.423 296.36 730.465 296.696C749.358 297.596 904.872 294.945 908.247 297.621C898.866 299.244 865.954 298.509 854.083 298.497L759.415 298.478C743.436 298.478 723.061 297.933 707.412 298.784C705.161 298.264 700.598 298.313 698.112 298.252C694.128 302.923 679.964 315.433 674.97 307.148C676.752 301.521 684.289 302.795 686.016 297.541C687.955 296.096 691.952 299.097 694.635 296.029L693.916 295.104C691.183 294.045 690.907 293.8 688.071 293.935Z" fill="#A58F7D"/>
<path d="M603.972 267.79C623.67 266.688 627.633 270.472 639.184 285.375L637.705 286.949C618.883 286.869 613.768 284.065 603.972 267.79Z" fill="#949A7F"/>
<path d="M1040.35 99.0016C1045.01 98.5178 1053.06 98.7321 1057.98 98.726L1089.02 98.7137C1108.8 98.7137 1137.55 97.8443 1156.77 98.9709L1158.15 100.93C1150.14 101.506 1138.88 101.206 1130.54 101.212L1083.02 101.218H1055.98C1052.45 101.224 1044.5 101.451 1041.3 100.9L1040.35 99.0016Z" fill="#F0A6A1"/>
<path d="M719.655 98.9405C728.482 98.3343 833.721 98.316 835.942 99.161L836.504 100.986C826.407 101.69 725.025 102.014 720.484 100.765L719.655 98.9405Z" fill="#F0A6A1"/>
<path d="M1171.16 91.2007C1174.02 91.2129 1174.51 91.6722 1177.02 93.0928C1186.73 90.6068 1188.07 93.4907 1182.13 101.543C1180.71 103 1178.79 104.518 1177.2 105.859C1171.98 101.971 1166.72 97.8503 1171.16 91.2007Z" fill="#F0A6A1"/>
<path d="M694.609 91.1519C697.637 91.4274 697.616 91.9846 700.228 93.3256C702.88 92.2357 704.786 90.9682 707.421 92.2663C709.355 95.9218 707.291 99.0445 704.982 101.757L700.472 106.037C695.109 102.02 689.674 97.777 694.609 91.1519Z" fill="#F0A6A1"/>
<path d="M639.184 285.375C643.145 286.838 649.107 289.196 653.154 290.133L652.024 292.367C647.744 291.198 641.946 288.657 637.705 286.949L639.184 285.375Z" fill="#999C8D"/>
<path d="M1190.13 173.721C1208.73 171.358 1225.76 184.442 1228.25 203.026C1230.75 221.615 1217.79 238.736 1199.22 241.369C1180.46 244.026 1163.13 230.904 1160.61 212.124C1158.08 193.351 1171.33 176.115 1190.13 173.721ZM1193.5 187C1182.18 187 1173 196.179 1173 207.5C1173 218.822 1182.18 228 1193.5 228C1204.82 228 1214 218.822 1214 207.5C1214 196.179 1204.82 187.001 1193.5 187Z" fill="#E37979"/>
<path d="M923.968 48.5049C926.732 48.6151 927.049 48.8537 928.751 50.4395C932.884 60.573 911.282 85.4085 906.01 93.54C903.831 96.9016 901.306 108.744 900.26 113.152C904.048 106.864 918.779 84.4108 928.075 88.1152C936.955 96.0815 923.062 117.903 931.016 123.071C950.898 122.012 961.553 90.2578 974.484 85.4268C998.388 76.4937 993.349 102.234 964.222 105.73C963.983 106.545 963.756 107.353 963.529 108.174C959.58 122.704 968.746 126.102 981.078 121.229C987.66 118.632 992.584 115.313 998.217 111.101C1006.02 105.265 1012.54 97.1894 1019.48 92.3154C1012.02 106.337 976.602 137.283 959.391 123.304C955.87 120.444 956.005 113.495 956.305 109.38C948.314 117.689 921.56 142.126 921.939 113.22C922.005 108.211 926.944 96.6384 924.116 92.5664C913.864 90.7295 902.361 117.622 897.723 124.088C896.809 125.361 896.489 125.135 895.155 125.208C891.731 122.373 893.31 116.238 894.172 112.374C897.902 95.6458 908.215 56.2937 923.968 48.5049ZM982.5 88.5C981.5 88.8333 978.8 89.8 976 91C973.2 92.2 969.5 97.8333 968 100.5C971.167 99.5 978.5 96.6 982.5 93C986.5 89.4001 984.167 88.5 982.5 88.5Z" fill="#5F3D31"/>
</svg>
