<svg width="1254" height="1254" viewBox="0 0 1254 1254" fill="none" xmlns="http://www.w3.org/2000/svg">
<g clip-path="url(#clip0_2_7)">
<path d="M363.71 500.411C350.684 477.093 341.079 459.181 348.537 431.753C358.834 393.887 390.42 388.381 412.15 361.133C421.781 349.057 426.922 334.498 432.95 320.388C445.055 292.049 463.857 265.83 491.291 250.621C517.971 235.695 549.566 232.238 578.843 241.041C593.423 245.271 607.078 252.203 619.095 261.477C620.21 262.347 630.374 271.376 630.484 271.413C647.751 277.113 659.905 284.084 669.561 301.714C677.46 316.236 679.279 333.295 674.619 349.155C670.265 363.75 660.548 375.849 647.273 383.754C642.969 386.317 636.791 385.552 635.211 391.213C633.337 397.909 635.119 405.815 636.491 412.311C656.121 402.515 675.403 398.481 696.931 405.818C712.796 411.082 725.887 422.492 733.272 437.49C740.136 451.79 740.766 469.442 735.445 484.323C733.051 491.056 729.439 497.294 724.797 502.727C718.288 510.305 712.784 513.128 709.588 522.721C716.85 527.987 719.084 533.707 722.501 541.805C718.527 536.329 714.933 531.11 709.012 527.585C691.8 517.341 671.208 521.718 655.882 533.3C643.397 542.738 636.209 555.182 628.053 568.143C632.78 571.7 634.268 572.784 637.354 578.058C635.101 575.869 633.386 573.827 630.539 572.597L629.192 572.827C627.869 575.31 629.278 578.783 630.025 581.591C628.506 578.742 626.663 575.04 624.967 572.382C619.971 570.023 603.176 561.128 599.556 560.694C591.875 561.838 583.207 570.733 581.999 578.245C584.897 586.668 587.915 591.579 593.809 598.279C630.404 639.883 662.857 613.615 691.996 581.193C688.543 587.869 685.463 592.483 681.134 598.626C686.106 596.733 691.09 594.872 696.092 593.041C692.823 595.399 690.318 596.904 686.724 598.805C672.243 606.463 664.393 615.874 648.841 622.879L648.094 623.118C635.689 626.975 623.951 626.847 612.372 620.601C597.822 612.758 584.111 597.366 579.164 581.523C576.049 579.896 573.486 578.054 570.59 576.084C566.556 571.545 565.698 568.942 563.456 563.408L557.77 560.729C551.419 560.106 534.333 548.214 528.28 544.287C519.362 538.538 510.253 533.091 500.968 527.955C491.349 522.721 485.169 520.066 474.592 516.953C464.538 513.949 454.021 512.806 443.557 513.582C440.663 513.815 432.79 514.894 430.863 513.574C430.612 511.729 430.552 511.24 429.645 509.531C404.19 521.66 389.286 539.565 385.833 568.286C383.991 583.607 387.146 595.396 391.547 609.871C377.706 592.073 358.995 581.095 354.03 558.511C349.762 539.093 355.088 524.579 366.517 509.257C374.054 499.153 367.841 485.537 365.147 474.341C361.631 459.234 364.284 443.348 372.519 430.204C387.869 405.58 411.548 401.224 431.723 385.249C454.436 367.264 466.223 342.092 498.413 334.435L497.683 333.051C458.539 344.245 456.315 360.269 427.897 382.164C407.942 397.538 379.786 404.463 365.668 430.936C356.436 448.249 356.198 462.986 360.04 482.039C361.157 487.577 363.081 495.032 363.71 500.411Z" fill="#5F3D31"/>
<path d="M640.654 307.994C649.919 323.579 652.056 339.109 647.531 356.803C646.135 362.244 644.059 367.49 641.365 372.417C637.354 379.682 631.323 385.492 630.98 394.289C630.741 400.586 631.819 406.138 632.994 412.222C633.374 416.093 637.25 424.49 632.541 426.801C626.798 429.62 619.395 425.329 617.093 433.93C615.287 440.675 614.968 444.715 606.444 441.331C603.004 439.994 599.749 438.224 596.756 436.064C595.899 435.452 595.009 434.853 594.144 434.243C598.705 439.889 602.258 443.028 609.164 445.937C610.144 446.35 609.8 448.209 609.777 449.049C607.613 452.766 602.12 453.132 600.91 454.833C596.651 460.819 600.286 470.412 590.455 473.387C582.555 475.779 570.14 469.138 563.347 465.028C550.137 457.034 538.914 447.454 530.209 434.608C535.839 449.211 539.713 451.698 546.206 463.67C533.763 489.031 536.634 510.068 560.097 527.358C556.92 523.363 551.056 516.042 549.474 511.033C549.817 510.17 550.03 509.596 550.331 508.699C558.646 509.722 578.772 521.968 580.107 530.994C575.13 530.119 572.021 530.67 567.934 533.823C560.383 539.647 552.012 551.427 557.77 560.729C551.42 560.106 534.333 548.214 528.28 544.287C519.362 538.538 510.253 533.091 500.968 527.955C491.349 522.721 485.169 520.066 474.592 516.953C464.538 513.949 454.021 512.806 443.557 513.582C440.663 513.815 432.79 514.894 430.863 513.574C430.612 511.729 430.552 511.24 429.645 509.531C439.459 504.08 449.062 498.516 456.805 490.267C459.323 487.569 461.65 484.697 463.766 481.674C470.438 472.139 474.908 458.887 481.695 450.362C496.383 431.91 509.152 424.481 515.013 400.019C518.246 401.505 522.263 403.93 525.263 400.733L525.024 399.951C519.009 397.68 516.445 397.663 512.886 390.676C510.652 386.291 510.178 381.098 510.221 376.234C514.517 374.89 517.795 373.96 522.176 372.954C522.412 376.673 522.468 380.861 524.683 383.989L525.382 383.671C526.265 378.725 525.544 378.542 527.349 373.377C550.48 379.391 561.587 375.08 578.049 358.277C606.686 352.977 630.527 335.839 640.654 307.994Z" fill="#FCE9DB"/>
<path d="M609.404 361.382C616.579 360.971 628.868 360.194 632.909 368.474C633.601 369.894 632.982 370.756 632.358 371.953C630.564 372.521 631.452 372.544 629.621 371.719C618.942 364.235 612.923 363.893 600.386 363.69C603.787 362.601 605.938 362.11 609.404 361.382Z" fill="#5F3D31"/>
<path d="M599.644 379.63C606.207 384.428 608.474 386.182 616.015 388.772L617.277 388.024C618.685 385.377 619.346 384.436 621.183 382.05L619.438 388.317C619.769 392.144 620.742 393.178 623.112 396.235C609.074 393.774 606.626 392.166 599.644 379.63Z" fill="#5F3D31"/>
<path d="M616.015 388.772L617.277 388.024C618.685 385.377 619.346 384.436 621.183 382.05L619.438 388.318C617.742 389.041 617.864 388.986 616.015 388.772Z" fill="#715A4E"/>
<path d="M616.034 425.266C619.444 424.413 620.644 424.749 623.865 425.937C620.877 426.266 618.685 426.604 616.034 425.266Z" fill="#715A4E"/>
<path d="M581.999 578.245C574.894 572.243 570.786 573.052 566.133 561.908C565.17 559.601 558.495 556.222 559.261 551.684C562.908 549.509 565.81 552.082 567.843 551.096C565.38 548.275 563.083 548.327 561.798 545.913L562.508 544.77C565.479 543.304 567.89 543.2 571.204 543.427L571.789 543.473C570.092 542.106 568.618 541.503 566.678 540.551L566.478 539.656C570.673 535.83 574.946 539.709 577.542 538.302C575.728 537.141 575.363 536.98 573.786 535.436L574.105 534.771C582.923 533.903 584.469 540.989 588.222 541.879C587.847 539.905 587.724 539.705 587.886 537.645L588.988 537.322C595.336 540.615 598.616 553.338 598.494 560.096L599.557 560.694C591.875 561.838 583.207 570.733 581.999 578.245Z" fill="#FCE9DB"/>
<path d="M510.482 331.027C506.042 332.518 502.978 333.354 498.414 334.435L497.683 333.051C502.593 331.732 505.321 331.33 510.482 331.027Z" fill="#CDB8AF"/>
<path d="M662.348 408.017C689.51 404.604 716.837 416.792 727.951 441.62C739.744 467.977 729.334 492.829 710.635 512.012C708.339 514.367 706.802 518.429 705.608 521.557C688.249 515.652 674.252 516.823 658.356 525.82C652.515 529.685 649.257 532.625 644.389 537.585C635.634 537.717 623.938 538.534 616.401 533.27C611.986 530.187 612.623 527.435 610.409 523.885C606.439 517.517 602.47 512.95 602.094 504.802C601.937 501.395 605.13 498.779 604.8 496.138C598.261 488.145 603.721 487.916 608.475 482.511C612.501 477.935 607.951 462.999 607.631 456.393L608.237 456.016C610.614 454.513 612.092 453.867 612.568 450.994C613.75 443.909 615.593 446.941 619.009 442.994C619.769 442.118 619.94 437.134 620.828 434.628C628.629 426.152 643.3 437.397 637.421 415.017C646.312 410.988 652.686 409.235 662.348 408.017Z" fill="#FCE9DB"/>
<path d="M685.285 479.507C690.098 478.92 695.07 479.764 697.942 484.171C703.893 493.309 698.407 506.885 689.651 512.171C685.573 514.632 678.348 516.63 675.666 511.251L676.26 511.402C688.261 513.7 698.56 500.943 696.282 489.492C694.133 478.685 681.073 484.507 679.536 483.648C681.612 481.156 682.285 481.032 685.285 479.507Z" fill="#5F3D31"/>
<path d="M622.463 478.874C622.696 480.335 622.947 480.678 623.559 482.046C626.957 484.674 630.025 483.2 634.213 484.228L633.925 485.082L631.323 486.288C627.906 487.276 620.742 487.969 619.701 483.63C621.079 481.727 621.422 481.006 622.463 478.874Z" fill="#5F3D31"/>
<path d="M687.245 488.524C688.861 489.034 688.886 489.114 690.325 490.05C687.606 490.943 685.12 490.623 684.416 493.724C685.365 495.444 685.445 495.447 685.867 497.334C684.581 499.787 684.477 499.283 681.814 501.043L680.264 501.961L679.946 501.572C685.438 495.987 681.103 496.968 682.297 491.784C683.963 489.772 684.771 489.639 687.245 488.524Z" fill="#5F3D31"/>
<path d="M605.136 508.765C604.764 508.74 615.36 510.845 616.983 511.078L618.171 513.359C613.615 513.86 605.919 514.278 605.136 508.765Z" fill="#5F3D31"/>
<path d="M622.095 464.325C625.482 463.959 632.939 464.6 633.803 468.597C628.506 466.149 628.237 466.462 622.708 465.645L621.851 465.522L622.095 464.325Z" fill="#5F3D31"/>
<path d="M493.189 382.518C489.19 385.71 485.694 387.923 481.472 390.773L481.016 389.534C484.69 385.991 488.572 384.48 493.189 382.518Z" fill="#A58F7D"/>
<path d="M377.505 510.009L378.461 510.682C377.248 513.474 376.258 516.366 374.278 518.607L373.887 518.072L374.283 518.662L374.26 516.456L374.163 516.782C375.342 513.942 375.939 512.644 377.505 510.009Z" fill="#CDB8AF"/>
<path d="M606.42 320.821C608.568 318.109 611.334 314.429 613.627 311.956C611.487 316.162 610.065 318.549 607.155 322.348L606.42 320.821Z" fill="#FCE9DB"/>
<path d="M595.493 703.116C583.641 704.701 571.674 705.253 559.727 704.757C508.633 702.73 457.254 680.926 422.405 642.957C404.945 624.134 393.14 599.925 394.889 573.738C396.647 547.436 409.694 525.171 437.61 521.466C481.095 515.695 516.441 546.567 551.476 567.059C556.042 569.73 565.436 576.054 570.59 576.084C573.486 578.054 576.049 579.896 579.164 581.523C584.111 597.366 597.822 612.758 612.372 620.601C623.951 626.847 635.689 626.975 648.094 623.118L648.841 622.879C656.195 627.912 661.405 629.021 666.334 636.821C654.921 641.72 644.2 646.226 634.28 653.966L633.184 654.248C613.939 668.429 605.494 682.052 595.493 703.116Z" fill="#F0A6A1"/>
<path d="M501.31 559.834C506.922 563.977 513.026 570.521 518.501 575.239C530.324 585.424 542.976 596.838 555.65 605.865C570.955 616.762 587.973 626.829 604.187 636.374C614.478 642.43 624.251 647.151 634.28 653.966L633.184 654.248C597.429 639.767 564.948 624.673 536.357 597.813C524.661 586.825 511.928 572.111 501.31 559.834Z" fill="#FDF8F4"/>
<path d="M966.002 389.96C966.762 391.037 967.056 392.353 967.27 393.658C969.639 408.094 968.384 424.41 961.741 437.506C955.379 450.653 946.384 456.691 934.787 464.377C927.329 469.319 916.871 488.162 911.367 496.195C897.406 516.575 884.511 537.773 870.618 558.177C875.926 554.256 881.425 550.709 886.978 547.212C889.177 545.83 896.457 541.258 897.351 539.38C912.616 507.498 930.532 497.226 965.831 497.768C962.108 507.988 957.755 518.214 950.511 526.485C939.379 539.197 925.498 542.452 909.26 543.613C878.957 545.781 854.734 580.533 837.596 602.806C830.903 611.604 823.917 620.179 816.655 628.519C832.875 620.001 838.025 621.74 851.893 607.934C878.865 581.091 912.518 585.377 943.506 603.123C919.082 619.959 901.08 638.867 867.972 630.545C848.532 625.659 844.295 620.846 825.025 629.786C804.256 639.418 794.802 653.017 778.845 668.594C769.557 677.662 759.79 686.228 749.589 694.262C758.511 690.631 767.922 689.1 776.549 685.316C781.258 682.922 785.691 678.734 789.763 675.403C821.664 649.325 856.118 653.99 888.644 675.874C875.975 682.707 864.531 691.494 852.989 697.391C833.634 707.279 811.5 705.044 791.912 696.846C773.335 689.075 755.78 695.615 737.98 704.175C714.596 716.372 695.756 726.775 668.992 730.137C663.818 730.786 658.338 732.408 653.115 732.127C653.684 731.269 666.402 729.041 668.784 728.33C684.403 723.585 699.405 716.99 713.47 708.694C737.356 694.47 769.214 669.243 786.652 647.053C792.732 639.326 797.6 625.328 800.074 615.881C805.266 596.065 800.043 590.203 790.271 574.106C771.375 542.98 780.309 518.036 788.514 485.847C799.86 494.022 812.883 511.508 818.045 524.612C825.154 542.485 824.836 562.454 817.169 580.094C811.702 592.833 806.601 599.68 804.991 614.203C804.262 620.81 799.939 631.402 797.196 637.679C808.346 627.288 818.957 612.954 828.846 601.333C835.435 593.588 842.286 584.626 847.748 576.065C850.779 571.314 852.561 563.956 854.208 558.625C857.165 546.491 862.909 516.298 853.859 506.116C823.611 472.101 825.448 450.836 837.314 407.423C862.872 426.677 877.8 460.885 869.295 492.156C867.979 496.986 863.307 507.992 863.19 512.394C862.701 531.253 861.231 547.154 857.055 565.583C875.32 541.334 893.31 517.861 910.111 492.408C913.326 487.535 925.168 471.108 926.692 466.419C928.884 459.652 927.525 446.873 930.011 436.909C935.559 414.642 947.052 402.041 966.002 389.96Z" fill="#949A7F"/>
<path d="M615.899 52.9214C622.818 52.5728 629.584 52.7061 636.509 52.7939C1022.93 57.6898 1271.89 484.578 1130.87 832.428C1130.3 833.843 1128.96 834.89 1127.68 835.618C1125.54 835.355 1126.44 835.759 1124.83 834.522C1124.76 833.01 1125.1 830.475 1125.68 829.079C1132.38 812.853 1137.1 796.37 1142.08 779.525C1144.78 770.383 1147.12 761.138 1149.09 751.806C1157.99 711.884 1162.71 671.147 1163.17 630.245C1164.02 475.568 1103.54 326.854 994.983 216.668C900.437 120.255 771.792 64.8529 636.785 62.4061C582.477 61.8201 528.392 69.417 476.348 84.9407C339.119 126.77 223.998 221.166 156.092 347.539C91.0172 467.417 69.905 606.275 96.4098 740.074C100.567 760.44 105.752 780.578 111.946 800.417C114.945 809.95 118.312 819.337 121.478 828.803C122.17 830.873 122.398 831.516 121.566 832.936C119.62 833.8 119.77 833.769 117.646 833.561C114.613 830.561 110.709 817.384 109.151 812.792C91.594 761.291 81.3171 707.592 78.6175 653.249C71.0145 499.012 124.581 348.003 227.678 233.033C315.145 137.307 424.178 77.2998 553.208 58.2019C575.047 54.9693 594 53.914 615.899 52.9214Z" fill="#F0A6A1"/>
<path d="M624.379 242.969C646.692 209.994 684.03 183.178 723.322 175.819C763.587 168.277 801.029 177.404 834.816 200.027C878.761 229.451 903.1 278.91 912.622 329.774C922.737 385.379 915.971 442.739 893.193 494.464C888.228 505.691 882.741 516.829 875.804 526.984C875.467 527.478 875.124 527.97 874.781 528.461C893.775 468.223 898.122 357.278 868.695 300.939C849.04 263.308 815.124 230.804 774.149 217.846C736.431 205.916 696.197 211.448 661.497 229.79C650.476 235.588 640.262 242.814 631.127 251.281L623.828 243.839L624.379 242.969Z" fill="#F0A6A1"/>
<path d="M729.059 526.116C773.353 581.549 777.615 650.231 719.219 697.605C673.143 734.98 607.786 736.333 551.342 730.908C496.43 724.816 443.219 698.842 408.753 654.443C404.084 648.449 399.78 642.185 395.865 635.676C394.181 632.854 389.647 624.532 387.958 622.304L388.599 621.177C393.567 629.198 402.259 639.577 408.735 646.582C439.267 679.621 476.688 700.605 520.373 710.61C552.797 718.038 575.805 717.762 608.562 714.4C622.487 681.158 636.417 662.771 671.588 648.418C699.577 637.005 723.72 631.513 737.062 600.318C746.063 579.267 742.775 557.33 734.123 536.736C732.586 533.126 730.896 529.582 729.059 526.116Z" fill="#949A7F"/>
<path d="M347.086 497.345C343.288 490.343 338.937 479.744 335.94 472.331C319.287 431.146 311.835 386.892 318.714 342.672C326.99 289.46 354.092 235.231 398.043 202.876C432.114 177.794 472.821 166.307 514.711 173.08C560.593 180.498 597.219 206.404 624.379 242.969L623.828 243.839C618.599 238.627 605.288 229.461 598.917 225.705C561.557 203.673 517.446 195.453 475.154 206.93C428.345 219.633 391.236 252.613 367.341 294.13C339.531 342.493 328.848 398.822 337.018 454.009C339.53 470.839 342.695 481.131 347.086 497.345Z" fill="#F0A6A1"/>
<path d="M201.5 996.581C205.072 997.206 207.758 1000.86 210.175 1003.54C231.229 1026.9 254.139 1047.65 278.682 1067.39C322.613 1103.05 371.741 1131.78 424.362 1152.58C602.837 1223.15 805.242 1195.03 957.718 1078.47C978.787 1062.21 998.755 1044.55 1017.48 1025.63C1021.13 1021.99 1041.52 997.481 1045 999.269C1045.14 1001.5 1044.96 1000.92 1043.21 1003.27C1037.59 1010.71 1028.19 1020.79 1021.78 1027.59C991.199 1060.15 956.72 1088.82 919.124 1112.94C795.163 1191.47 644.898 1216.99 501.961 1183.81C403.565 1161.52 316.106 1112.69 243.287 1043.53C230.22 1031.12 213.217 1014.39 201.764 999.863C200.633 998.43 201.094 998.075 201.5 996.581Z" fill="#F0A6A1"/>
<path d="M717.885 851.281C725.538 851.152 733.192 851.128 740.852 851.214C753.019 876.41 764.144 903.645 776.568 928.407C781.35 917.998 785.758 906.946 790.339 896.396C797.025 881.351 803.638 866.27 810.159 851.152C818.247 851.159 827.665 850.963 835.618 851.52C829.367 854.826 822.527 855.255 822.705 864.586C823.189 890.211 823.991 916.479 826.238 942C826.673 946.954 834.008 947.474 835.649 949.733L835.171 950.376C831.222 951.025 803.252 951.234 800.491 950.095C800.98 948.215 805.891 947.352 807.587 945.588C812.241 940.757 808.879 905.139 808.383 896.971C808.236 888.674 807.703 880.225 807.538 871.799C796.045 897.914 784.84 924.139 773.402 950.272C772.998 950.499 772.594 950.725 772.19 950.946C771.755 950.738 771.326 950.523 770.892 950.309C759.601 928.78 745.757 894.1 734.747 874.077C733.902 884.695 730.229 937.622 733.664 943.886C735.782 947.75 741.311 948.827 745.199 950.113C736.646 951.344 720.781 950.854 712.062 950.364C716.17 948.331 721.748 947.688 723.812 942.992C726.42 937.04 730.082 867.091 728.324 861.678C726.487 856.026 719.66 855.579 717.885 851.281Z" fill="#E37979"/>
<path d="M871.169 885.062C889.771 882.698 906.799 895.783 909.297 914.367C911.795 932.956 898.833 950.076 880.268 952.709C861.507 955.367 844.178 942.245 841.65 923.466C839.127 904.693 852.377 887.456 871.169 885.062Z" fill="#E37979"/>
<path d="M250.373 925.266C250.404 912.842 252.154 863.76 248.447 855.322C247.419 852.983 246.033 850.932 243.542 850.081C241.8 849.481 239.116 848.905 238.178 847.301C241.069 846.199 266.028 846.058 267.863 847.491C265.36 851.097 260.545 849.971 258.377 855.022C255.543 861.611 257.028 924.109 256.994 936.808C256.983 940.8 258.113 947.633 256.533 951.191C256.065 952.25 254.79 952.501 253.783 952.954C250.917 950.144 248.464 947.284 245.779 944.327C223.285 919.535 201.719 893.493 178.786 869.148C178.832 882.264 177.095 933.52 180.751 942.496C182.751 947.413 188.938 948.448 193.393 950.199C183.927 951.277 167.544 950.958 158.043 950.389C168.227 946.237 172.205 946.231 172.27 932.791C172.386 908.232 173.397 882.172 171.642 857.71C171.3 852.94 161.329 849.512 160.351 846.989C165.02 846.254 175.885 846.621 180.964 846.719L250.373 925.266Z" fill="#949A7F"/>
<path d="M938.694 897.333C951.374 883.531 967.79 879.11 978.567 897.755C986.557 888.062 996.63 882.3 1009.42 887.15C1025.95 893.42 1019.74 918.58 1020.87 932.332C1021.21 936.422 1020.22 940.61 1022.27 944.517C1024.04 948.35 1026.77 947.064 1028.93 949.317L1028.39 950.499C1025.43 951.117 1001.92 951.105 999.63 950.07L999.875 949.042C1005.67 947.137 1007.92 944.609 1007.39 937.898C1006.4 925.529 1010.79 906.15 1002.26 896.334C996.103 889.256 985.21 895.63 980.208 901.104L979.614 901.766L979.657 922.284C979.724 926.539 979.62 931.034 979.363 935.277C978.695 946.176 982.216 946.941 990.666 950.438C985.945 950.983 963.835 951.105 959.224 950.444L958.875 949.899C960.865 948.386 962.965 946.843 964.502 944.847C967.46 941.008 966.419 912.818 965.77 906.958C965.311 902.862 963.89 898.533 960.449 895.973C957.657 893.904 953.94 893.42 950.591 894.149C945.055 895.361 941.822 898.545 938.718 903.07C938.443 911.905 937.536 936.373 939.967 945.466C940.475 947.364 946.972 949.378 949.28 950.187C943.525 951.16 919.853 950.952 913.522 950.462C915.653 949.403 923.41 946.905 923.723 945.043C925.811 932.601 925.254 910.589 923.772 897.939C923.478 895.434 916.883 893.591 914.777 892.893C922.284 890.205 929.436 888.387 937.377 885.399L938.247 886.146C938.865 889.011 938.688 894.185 938.694 897.333Z" fill="#E37979"/>
<path d="M652.3 883.66C668.845 882.196 681.936 888.405 685.922 906.107C686.559 908.936 686.167 910.95 684.459 913.277C680.228 916.21 646.312 914.771 639.099 914.771C639.932 938.865 658.987 951.736 679.505 937.169C681.183 935.455 682.328 933.544 684.746 934.628C684.912 936.569 684.679 937.249 683.571 938.969C674.031 953.793 652.613 956.144 638.573 946.972C622.408 936.416 620.112 913.669 629.964 898.245C635.34 889.826 642.816 885.693 652.3 883.66Z" fill="#949A7F"/>
<path d="M532.641 933.061C532.887 925.621 533.622 903.027 531.498 895.71C530.962 893.867 525.431 892.287 523.846 890.303C527.357 888.515 542.432 884.211 547.172 882.692C547.846 895.594 547.434 911.091 547.415 924.176C547.323 929.503 546.78 937.034 548.734 942.006C550.109 945.503 555.376 942.839 556.83 947.095C555.329 948.631 537.232 951.779 533.691 952.428L532.561 940.292C522.636 950.609 510.443 956.242 496.262 949.954C478.368 942.019 487.755 913.289 484.569 898.11C483.354 892.324 477.813 893.034 476.691 890.022C478.586 889.079 493.18 884.768 496.697 883.507C498.297 883.452 497.742 883.384 499.247 883.85C499.983 886.415 499.672 892.471 499.72 895.532C499.946 907.423 498.934 919.449 500.124 931.297C501.114 941.149 510.388 945.956 519.529 943.335C526.205 941.418 529.223 938.975 532.641 933.061Z" fill="#949A7F"/>
<path d="M292.874 883.476C294.369 883.311 293.854 883.268 295.365 883.782C296.155 886.795 295.766 892.587 295.812 896.065C295.988 907.809 295.132 919.467 296.206 931.187C297.141 941.388 305.936 945.705 315.337 943.274C321.828 941.596 325.183 938.92 328.724 933.299C329.127 922.094 329.364 909.125 328.612 897.871C328.393 894.595 322.539 892.422 320.429 890.371C323.631 888.723 338.974 884.174 343.485 882.705C344.022 895.116 343.556 911.562 343.558 924.274C343.527 929.215 342.558 940.653 346.506 943.647C349.129 944.1 351.703 944.339 352.944 947.045C350.625 949.152 333.777 951.626 329.929 951.956C329.543 948.062 329.105 944.174 328.614 940.298C325.157 944.009 321.019 947.456 316.426 949.666C309.42 952.973 301.376 953.316 294.113 950.621C272.357 942.729 285.423 911.44 279.569 895.269C278.674 892.795 272.563 891.467 269.783 890.591C277.957 888.221 284.897 886.593 292.874 883.476Z" fill="#949A7F"/>
<path d="M605.012 759.846C607.775 759.956 608.093 760.195 609.794 761.78C613.927 771.914 592.325 796.749 587.053 804.881C584.873 808.242 582.35 820.084 581.303 824.493C585.091 818.204 599.822 795.751 609.118 799.456C617.999 807.422 604.105 829.244 612.059 834.412C631.941 833.353 642.595 801.599 655.527 796.768C679.432 787.834 674.392 813.575 645.265 817.072C645.026 817.886 644.8 818.694 644.573 819.515C640.624 834.045 649.79 837.443 662.122 832.569C668.704 829.973 673.627 826.654 679.26 822.441C687.061 816.606 693.582 808.53 700.526 803.656C693.068 817.678 657.646 848.624 640.434 834.645C636.913 831.785 637.048 824.836 637.348 820.721C629.357 829.03 602.603 853.467 602.982 824.56C603.048 819.551 607.987 807.979 605.159 803.907C594.907 802.07 583.404 828.963 578.766 835.429C577.852 836.702 577.532 836.476 576.198 836.549C572.774 833.714 574.354 827.579 575.216 823.715C578.946 806.987 589.259 767.634 605.012 759.846Z" fill="#5F3D31"/>
<path d="M447.451 864.342C449.809 865.983 448.911 880.751 448.89 884.199C454.257 884.321 465.982 882.447 469.226 886.476C469.223 888.803 469.683 888.001 468.446 889.317C463.038 890.169 454.62 889.783 448.811 889.905C448.733 903.058 448.591 916.424 448.727 929.583C448.772 933.973 450.024 939.092 453.473 942.147C458.131 946.268 465.112 940.904 471.362 940.212L471.876 940.935C470.983 943.408 469.609 944.449 467.727 946.354C449.772 960.455 432.58 950.034 434.103 927.838C434.887 916.412 434.182 901.668 434.155 889.973C431.662 889.96 425.655 890.291 424.006 888.852C424.034 888.228 424.062 887.597 424.09 886.972C427.392 884.168 432.796 879.784 435.711 876.937C439.985 872.761 443.686 868.566 447.451 864.342Z" fill="#949A7F"/>
<path d="M589.682 898.129C594.757 888.962 606.643 878.069 617.136 885.693C623.528 890.089 621.226 902.292 613.04 902.623C607.855 902.145 606.85 892.612 601.13 893.371C598.188 893.702 593.949 896.775 592.597 899.433C587.66 909.132 589.469 926.527 589.573 937.328C589.937 948.172 593.952 947.156 602.941 949.923C594.457 951.27 571.329 951.068 562.761 950.23C565.568 948.956 573.284 947.15 573.69 944.039C575.283 931.818 575.903 907.834 573.292 895.906C572.812 893.714 565.277 891.503 563.427 890.842C571.878 888.43 578.391 886.764 586.592 883.507C588.455 883.543 587.654 883.207 589.131 884.229C590.179 887.995 589.743 894.038 589.682 898.129Z" fill="#949A7F"/>
<path d="M382.947 883.482L385.037 883.568C387.098 886.299 386.3 894.32 386.188 898.129C393.152 887.383 409.413 874.04 417.215 890.45C419.691 895.661 413.009 910.46 404.697 897.975C400.397 891.522 391.801 892.667 388.584 900.657C384.592 910.571 386.094 925.107 386.175 936.367C386.491 947.891 389.532 946.494 399.313 950.138C390.379 951.16 368.171 951.172 359.054 950.223C364.112 948.093 370.627 947.897 371.105 940.916C372.074 926.76 372.061 911.709 370.938 897.584C370.768 895.447 364.37 892.618 362.918 890.493C365.314 889.164 377.5 885.803 381.981 883.899L382.947 883.482Z" fill="#949A7F"/>
<path d="M1056.01 885.558C1062.42 885.233 1071.74 886.764 1078.34 887.609C1079.19 889.966 1080.15 902.653 1079.17 905.017L1078.24 905.341C1075.44 902.972 1074.98 898 1070.39 894.063C1066.45 889.25 1055.91 887.952 1051.59 893.322C1044.6 902.5 1055.85 908.574 1063.54 911.593C1078.68 917.539 1092.33 928.854 1078.92 945.258C1074.29 950.928 1066.37 952.146 1059.3 952.495C1050.42 952.17 1046.73 948.809 1038.6 950.327C1038.03 943.243 1037.02 933.452 1037.85 926.674C1042 932.503 1043.96 941.229 1050.45 945.068C1069.56 956.395 1083.11 933.759 1059.76 925.376C1046.51 920.625 1031.86 911.232 1040.56 894.944C1043.48 889.489 1050.41 886.942 1056.01 885.558Z" fill="#E37979"/>
<path d="M930.378 996.208C940.892 982.088 946.519 977.269 964.937 979.222C954.614 995.858 949.531 999.189 931.977 998.283C930.991 998.234 915.353 1004.27 912.273 1005.16C926.674 1005.18 931.511 1008.21 941.743 1017.94C932.191 1021.44 924.219 1023.93 913.999 1019.63C907.705 1017 903.945 1012.45 898.679 1008.98C894.406 1009.27 888.148 1009.5 884.052 1010.06C881.241 1007.17 878.651 1009.31 873.832 1008.2L873.612 1007.17L874.604 1005.97C879.796 1005.28 885.772 1000.95 887.554 996.097C879.729 991.217 870.14 1006.54 866.46 1007.01C874.322 997.402 877.616 994.199 890.536 994.426C885.65 1001.41 884.223 1003.82 876.226 1007.33C884.756 1007.16 891.191 1006.81 899.61 1005.2C907.368 991.658 910.577 984.341 927.666 982.241C925.015 992.907 922.241 995.565 913.718 1002.24C919.32 1000.37 924.874 998.357 930.378 996.208Z" fill="#949A7F"/>
<path d="M613.823 751.341L615.06 751.855C615.103 761.848 576.759 759.503 570.526 759.246C560.97 783.86 549.774 813.6 549.294 840.327C549.157 847.987 552.979 847.013 557.866 846.413L558.275 847.234C557.117 850.087 555.691 851.893 552.124 851.183C537.024 848.177 543.177 823.831 545.43 813.226C550.249 794.282 556.567 776.794 563.849 758.707C554.81 758.425 533.189 757.243 526.324 766.042C525.575 766.997 524.726 768.259 524.005 769.263L522.86 769.33C521.764 766.397 523.827 762.815 526.251 761.168C551.598 743.938 587.989 765.197 613.823 751.341Z" fill="#5F3D31"/>
<path d="M321.2 981.696C341.258 986.092 339.29 990.354 349.087 1005.01C352.88 1005.86 368.835 1008.48 371.858 1006.76C370.976 1006.27 370.008 1005.71 369.114 1005.28C371.951 1005.14 372.226 1005.39 374.96 1006.45L375.678 1007.37C372.995 1010.44 368.999 1007.44 367.059 1008.88C365.332 1014.14 357.795 1012.86 356.013 1018.49C361.007 1026.77 375.171 1014.26 379.155 1009.59C381.641 1009.65 386.204 1009.6 388.455 1010.13L380.225 1010.52C369.868 1021.02 367.248 1022.09 352.726 1021.06C357.315 1014.29 358.791 1012.84 366.349 1009.82C361.043 1009.65 355.742 1009.34 350.452 1008.89C345.239 1012.53 341.604 1017.02 335.381 1019.66C325.494 1023.86 316.898 1021.4 307.525 1018.05C316.99 1008.81 321.654 1006.11 334.676 1004.66L333.067 1003.71L334.197 1001.47C327.074 995.362 324.03 990.77 321.2 981.696Z" fill="#949A7F"/>
<path d="M610.477 992.558C617.405 991.976 619.665 994.077 623.614 999.538C637.538 983.074 651.535 998.742 635.205 1016.37C631.445 1019.7 628.01 1022.4 624.03 1025.48C614.895 1019.03 594.042 1002.99 610.477 992.558Z" fill="#F0A6A1"/>
<path d="M866.46 1007.01C870.14 1006.54 879.729 991.217 887.554 996.097C885.772 1000.95 879.796 1005.28 874.604 1005.97L873.612 1007.17L873.832 1008.2C878.651 1009.31 881.241 1007.17 884.052 1010.06C890.389 1012.48 892.624 1015.31 896.292 1020.66C895.141 1020.87 893.989 1021.05 892.832 1021.21C879.968 1022.98 876.888 1017.34 868.028 1010.57C847.76 1009.19 826.305 1009.82 805.848 1009.83L706.122 1009.86C698.793 1009.85 662.33 1010.54 658.754 1009.1L658.944 1008.44C662.942 1007.62 695.823 1007.97 701.499 1007.97L807.011 1008.01C821.401 1008.04 853.308 1008.93 866.46 1007.01Z" fill="#A58F7D"/>
<path d="M369.114 1005.28C366.142 1004.35 359.006 997.75 359.532 994.579C369.998 992.393 376.246 1000.12 382.191 1006.93C391.026 1008.8 404.466 1007.7 411.508 1008.04C430.401 1008.94 585.916 1006.29 589.29 1008.96C579.909 1010.58 546.997 1009.85 535.126 1009.84L440.458 1009.82C424.48 1009.82 404.104 1009.27 388.455 1010.13C386.204 1009.6 381.641 1009.65 379.155 1009.59C375.171 1014.26 361.007 1026.77 356.013 1018.49C357.795 1012.86 365.332 1014.14 367.059 1008.88C368.999 1007.44 372.995 1010.44 375.678 1007.37L374.959 1006.45C372.226 1005.39 371.951 1005.14 369.114 1005.28Z" fill="#A58F7D"/>
<path d="M726.022 552.051C726.297 552.401 726.867 553.014 727.038 553.508C738.69 586.612 722.758 613.339 692.7 626.829C692.088 627.135 691.298 627.318 690.612 627.52C690.918 626.608 697.844 621.875 699.515 620.491C703.569 617.16 707.279 613.431 710.598 609.367C724.669 591.963 728.294 573.735 726.022 552.051Z" fill="#5F3D31"/>
<path d="M285.016 979.13C304.713 978.028 308.676 981.812 320.227 996.716L318.748 998.289C299.926 998.21 294.811 995.405 285.016 979.13Z" fill="#949A7F"/>
<path d="M784.711 1104.95C790.136 1103.46 795.745 1106.64 797.245 1112.07C798.745 1117.49 795.58 1123.1 790.161 1124.62C784.724 1126.14 779.084 1122.96 777.572 1117.52C776.066 1112.07 779.268 1106.44 784.711 1104.95Z" fill="#5F3D31"/>
<path d="M702.583 1122.71C708.02 1121.6 713.341 1125.06 714.523 1130.49C715.705 1135.9 712.312 1141.27 706.906 1142.52C703.348 1143.35 699.613 1142.2 697.146 1139.51C694.672 1136.81 693.839 1133 694.966 1129.52C696.093 1126.04 699.001 1123.44 702.583 1122.71Z" fill="#5F3D31"/>
<path d="M909.683 1054.74C915.255 1054.46 920 1058.73 920.312 1064.3C920.618 1069.86 916.363 1074.63 910.797 1074.96C905.201 1075.29 900.4 1071.01 900.088 1065.41C899.782 1059.81 904.08 1055.03 909.683 1054.74Z" fill="#5F3D31"/>
<path d="M361.764 1070.57C365.339 1069.9 368.998 1071.2 371.343 1073.98C373.687 1076.76 374.355 1080.59 373.089 1084C371.824 1087.41 368.822 1089.88 365.232 1090.45C359.778 1091.34 354.63 1087.67 353.682 1082.22C352.733 1076.78 356.334 1071.59 361.764 1070.57Z" fill="#5F3D31"/>
<path d="M932.834 1041.88C938.259 1041.9 942.692 1046.21 942.857 1051.63C943.023 1057.05 938.865 1061.63 933.452 1061.98C929.785 1062.21 926.282 1060.43 924.311 1057.33C922.339 1054.23 922.217 1050.3 923.992 1047.08C925.768 1043.86 929.16 1041.87 932.834 1041.88Z" fill="#5F3D31"/>
<path d="M951.62 1029.27C954.92 1029.19 959.635 1030.13 961.355 1032.93C966.744 1041.68 958.477 1047.82 953.114 1051.21C951.791 1050.79 943.629 1037.36 942.068 1034.94C945.705 1032.28 947.615 1031.19 951.62 1029.27Z" fill="#5F3D31"/>
<path d="M721.393 810.342C726.052 809.859 734.098 810.073 739.027 810.067L770.059 810.055C789.842 810.055 818.596 809.185 837.816 810.312L839.194 812.271C831.179 812.847 819.919 812.547 811.585 812.553L764.058 812.559H737.025C733.498 812.565 725.544 812.792 722.342 812.241L721.393 810.342Z" fill="#F0A6A1"/>
<path d="M400.698 810.281C409.525 809.675 514.764 809.657 516.985 810.502L517.547 812.326C507.45 813.03 406.068 813.355 401.527 812.106L400.698 810.281Z" fill="#F0A6A1"/>
<path d="M865.75 1075.73C873.079 1076 873.293 1078.52 872.155 1084.73C871.806 1086.62 876.006 1088.96 877.757 1090.72L877.714 1091.67L876.526 1092.24C871.45 1091.82 872.044 1087.11 865.284 1088.87C866.478 1091.73 867.415 1093.25 867.25 1096.34L866.717 1096.69C863.276 1093.32 859.657 1084.02 857.618 1079.31C860.159 1078.08 863.129 1076.87 865.75 1075.73Z" fill="#5F3D31"/>
<path d="M551.837 1124.58C557.215 1125.01 560.754 1124.74 564.459 1128.8C566.096 1133.03 563.535 1135.47 560.384 1137.77C561.73 1140.25 562.659 1141.8 563.572 1144.53L563.086 1145.44L561.21 1145.35C559.804 1142.7 557.535 1137.73 554.932 1136.69C553.433 1138.54 553.654 1141.96 551.476 1144.29L550.268 1144.2C549.292 1142.13 551.481 1128.31 551.837 1124.58Z" fill="#5F3D31"/>
<path d="M382.895 1078.53C387.295 1080.33 400.451 1085.51 390.298 1091.79C384.358 1095.46 389.393 1096.96 387.853 1101.98L386.734 1102.02C385.059 1100.29 385.575 1101.29 385.105 1098.95C384.823 1095.89 384.992 1093.66 382.409 1091.76C380.262 1092.64 378.602 1095.51 377.021 1097.62L375.62 1097.06C375.235 1095.36 381.736 1081.24 382.895 1078.53Z" fill="#5F3D31"/>
<path d="M766.924 1109.66C767.983 1110.03 767.708 1109.98 768.626 1110.76C769.869 1114.15 773.696 1126.4 772.526 1129.46C770.934 1129.51 771.681 1129.7 770.353 1128.51C769.624 1124.61 768.338 1120.4 767.261 1116.53C765.718 1120.13 764.211 1124.3 762.778 1127.99C761.04 1126.23 756.796 1121.58 754.794 1120.74L754.555 1121.92C755.498 1125.81 756.429 1128.68 756.184 1132.68L755.596 1132.94C753.331 1130.22 748.071 1116.35 751.965 1114.12C753.833 1114.84 759.999 1121.36 761.848 1123.21C763.409 1118.56 764.799 1114.08 766.924 1109.66Z" fill="#5F3D31"/>
<path d="M342.106 1058.39C345.369 1059.79 350.258 1061.53 351.102 1065.12C353.463 1075.19 345.276 1074.31 339.492 1071.36C339.108 1071.41 338.726 1071.46 338.342 1071.51C337.408 1073.05 336.483 1074.6 335.568 1076.16C333.949 1076.66 334.707 1076.77 333.226 1076.01C333.018 1073.73 340.517 1061.27 342.106 1058.39Z" fill="#5F3D31"/>
<path d="M324.925 1047.98C328.056 1049.8 340.11 1057.13 331.234 1062.83C328.729 1064.44 323.923 1062.15 321.347 1060.78C318.815 1062.28 318.875 1066.46 315.694 1065.73C315.329 1062.82 323.035 1051.28 324.925 1047.98Z" fill="#5F3D31"/>
<path d="M668.269 1126.9C673.872 1126.43 678.617 1129.66 676.119 1135.97C675.011 1138.78 669.641 1139.19 666.935 1139.96L666.757 1141.19C666.812 1143.47 667.124 1144.93 665.918 1146.83L665.098 1146.52C663.383 1142.08 662.422 1132.59 663.004 1127.9C664.798 1126.82 665.992 1127.06 668.269 1126.9Z" fill="#5F3D31"/>
<path d="M430.751 1096.87C434.066 1099 437.225 1110.3 438.95 1114.84C440.049 1111.28 441.712 1102.74 444.94 1101.47L445.442 1102.19C445.243 1106.39 441.295 1116.42 439.69 1120.9C436.344 1119.72 432.91 1107.03 431.597 1103.31C430.392 1106.83 428.553 1113.21 425.764 1115.6C424.584 1112.36 429.321 1100.75 430.751 1096.87Z" fill="#5F3D31"/>
<path d="M852.206 802.542C855.065 802.554 855.549 803.013 858.059 804.434C867.77 801.948 869.118 804.832 863.178 812.883C861.758 814.341 859.835 815.859 858.243 817.2C853.02 813.312 847.767 809.191 852.206 802.542Z" fill="#F0A6A1"/>
<path d="M375.652 802.493C378.68 802.768 378.659 803.325 381.272 804.666C383.923 803.576 385.83 802.309 388.464 803.607C390.398 807.263 388.335 810.385 386.025 813.098L381.515 817.378C376.152 813.361 370.717 809.118 375.652 802.493Z" fill="#F0A6A1"/>
<path d="M456.055 1106.48C460.668 1105.99 466.878 1106.24 468.601 1111.69C465.571 1111.77 461.242 1108.19 456.174 1109.46C452.704 1112.17 451.169 1116.5 453.601 1120.47C454.505 1121.95 455.969 1123 457.66 1123.38C459.723 1123.83 461.742 1123.73 463.511 1122.54C464.259 1120.74 464.297 1121.61 463.746 1119.89C461.68 1119.15 461.757 1119.23 460.039 1117.88L460.194 1116.98C463.234 1116.4 464.801 1117.11 467.799 1117.92C467.317 1119.81 466.603 1123.21 465.16 1124.49C458.3 1130.58 448.035 1122.78 449.713 1114.52C450.521 1110.55 452.833 1108.55 456.055 1106.48Z" fill="#5F3D31"/>
<path d="M830.334 1089.47C831.742 1089.8 831.271 1089.63 832.514 1090.39C834.957 1095.3 838.172 1102.54 837.859 1108.07L837.186 1108.27C835.08 1105.94 834.773 1103.88 833.861 1100.85C830.848 1101.65 827.407 1103.03 824.438 1104.12C825.509 1107.04 826.305 1109.79 827.181 1112.76C826.636 1112.89 825.766 1112.93 825.172 1112.98C822.784 1110.15 818.137 1097.97 819.429 1094.43L820.39 1094.46C821.59 1096.07 822.772 1099.63 823.544 1101.64L832.728 1098.28C831.387 1095.13 830.126 1092.84 830.334 1089.47Z" fill="#5F3D31"/>
<path d="M889.373 1063.87C889.899 1064.08 890.579 1064.5 891.099 1064.79C893.83 1069.79 897.504 1075.91 898.276 1081.49L897.682 1082.06C895.085 1080.02 894.461 1078.11 892.881 1075.15C890.009 1076.43 887.076 1077.85 884.217 1079.17C885.454 1081.97 887.597 1085.51 887.548 1088.31C883.28 1087.67 878.204 1074.7 878.302 1070.64L879.098 1070.42C881.241 1072.24 881.958 1074.3 883.225 1076.85C886.121 1075.59 889.085 1074.12 891.944 1072.75C891.418 1071.78 890.903 1070.8 890.401 1069.82C888.901 1066.83 888.528 1066.43 889.373 1063.87Z" fill="#5F3D31"/>
<path d="M305.141 1035.69C305.628 1036.08 306.115 1036.47 306.602 1036.86C306.38 1041.44 299.257 1048.14 300.9 1053.4C301.14 1054.17 301.724 1054.58 302.477 1054.75C309.887 1056.47 311.57 1046.21 316.329 1043.12L317.345 1043.45L317.902 1044.79C315.21 1048.8 306.802 1067 297.762 1052.22C295.757 1048.94 302.72 1039.39 305.141 1035.69Z" fill="#5F3D31"/>
<path d="M489.62 1113.76C493.207 1114.55 497.024 1115.15 500.167 1117L500.157 1117.65C497.15 1118.2 494.737 1117.52 491.694 1117.01L490.622 1122.74C493.24 1123.36 495.783 1123.32 497.936 1124.56L498.052 1125.68C494.641 1127.13 492.571 1124.37 489.598 1126.09L489.01 1130.67C492.145 1133.16 496.897 1131.02 498.076 1134.44L497.134 1135.15C494.797 1135.51 487.912 1133.72 485.185 1133.12C486.791 1126.84 488.189 1120.11 489.62 1113.76Z" fill="#5F3D31"/>
<path d="M532.351 1121.88C536.963 1122.44 540.123 1122.5 544.262 1124.66C541.384 1126.21 537.737 1123.57 533.895 1126.71C533.404 1128.33 533.69 1128.49 534.232 1130.17C536.937 1132 539.786 1130.61 541.794 1132.45L541.582 1133.43C538.096 1134.87 535.533 1131.37 533.113 1134.74L532.778 1138.58C534.434 1140.96 539.747 1139.3 542.443 1141.26L542.4 1142.19C540.074 1143.47 532.591 1142.01 529.304 1141.66C530.796 1135.37 531.564 1128.32 532.351 1121.88Z" fill="#5F3D31"/>
<path d="M647.243 1128.21C649.325 1128.06 654.076 1127.64 655.729 1128.66C652.49 1129.95 649.251 1130.88 645.92 1131.89C645.339 1136.71 650.947 1136.32 654.052 1137.27C652.962 1141.2 650.219 1137.64 647.188 1139.51C646.055 1141.79 646.422 1142.72 646.692 1145.4C649.863 1145.68 653.776 1144.38 656.721 1146.03C654.162 1148.03 647.384 1148.01 644.096 1148.14C644.089 1143.46 642.136 1131.29 644.549 1128.4L647.243 1128.21Z" fill="#5F3D31"/>
<path d="M290.219 1026.14C293.09 1026.85 299.304 1029.54 297.48 1033.26C294.491 1033.11 292.778 1029.3 289.564 1029.09L288.925 1030.33C288.946 1036.97 297.834 1043.48 286.099 1045.88C282.468 1044.07 279.283 1042.49 279.398 1037.8L280.346 1037.28C284.321 1038.82 282.309 1043.38 287.271 1042.83C293.298 1038.07 284.598 1036.47 285.823 1029.7C287.368 1027.5 287.75 1027.45 290.219 1026.14Z" fill="#5F3D31"/>
<path d="M607.764 1128.47C611.103 1128.23 615.274 1127.6 616.732 1131.41C614.521 1132.52 610.682 1130.43 607.507 1132.16C607.444 1137.17 627.318 1141.93 612.366 1148.65C608.616 1148.61 606.618 1148.03 604.324 1144.92L604.82 1144.2L606.638 1144.12C609.217 1145.73 612.421 1147.01 614.65 1144.07C612.733 1138.74 599.767 1136.99 607.764 1128.47Z" fill="#5F3D31"/>
<path d="M508.068 1117.46C511.909 1118.93 513.032 1130.46 513.85 1134.69C515.759 1131.63 521.229 1122.37 523.557 1120.55L525.168 1120.75L525.484 1121.72L523.639 1124.5C520.51 1129.38 516.433 1136.11 512.707 1140.31C511.552 1136.77 507.514 1120.89 508.068 1117.46Z" fill="#5F3D31"/>
<path d="M570.375 1126.35C571.198 1126.42 572.227 1126.62 573.061 1126.74C575.38 1128.89 577.12 1132.92 578.724 1135.91C581.222 1132.29 582.105 1130.28 585.936 1128.1L586.653 1128.42C586.281 1130.69 584.448 1132.57 582.988 1134.47C579.06 1139.58 580.189 1141.37 577.599 1146.91L576.828 1146.66L577.516 1146.95L576.74 1146.16C576.465 1144.28 576.789 1140.78 576.904 1138.75C574.611 1134.68 572.434 1130.54 570.375 1126.35Z" fill="#5F3D31"/>
<path d="M728.612 1118.9C730.847 1118.59 729.879 1118.39 731.704 1119.09L731.373 1119.98C728.526 1121.27 725.606 1121.49 723.205 1122.7C722.838 1124.63 722.924 1124.53 723.518 1126.43C725.906 1127.85 729.09 1128.12 731.918 1128.6L731.692 1129.08C728.992 1130.06 727.106 1130.22 724.283 1130.63C725.036 1134.34 725.465 1136.02 724.626 1139.71L723.597 1138.71L723.579 1138.72C721.834 1133.39 720.94 1125.93 719.838 1120.16L728.612 1118.9Z" fill="#5F3D31"/>
<path d="M400.192 1086.23C404.996 1087.21 409.549 1089.16 413.573 1091.96L413.718 1092.85C411.142 1093.11 410.447 1092.58 407.947 1091.54L404.07 1101.4C402.938 1104.53 402.928 1104.88 400.81 1107.33L399.995 1107.11C399.843 1103.31 403.598 1094.45 405.137 1090.59C401.964 1089.42 400.163 1089.63 400.192 1086.23Z" fill="#5F3D31"/>
<path d="M622.102 1128.71C624.741 1128.47 635.113 1127.94 637.079 1129.14L637.293 1130.25L636.227 1130.97C634.378 1130.95 633.313 1130.75 631.66 1131.58C630.931 1133.6 631.274 1140 631.317 1142.44C631.403 1144.7 631.684 1146.27 630.802 1148.33L629.737 1148.58L628.88 1147.84C627.918 1143.59 629.804 1133.81 627.337 1131.29C623.749 1131.47 623.51 1131.96 622.102 1128.71Z" fill="#5F3D31"/>
<path d="M811.322 1097.34L812.234 1097.56L812.657 1098.55C811.365 1099.93 809.216 1100.47 807.36 1101.17C808.487 1105.02 812.7 1114.38 811.818 1117.34L810.385 1118.02C808.861 1116.49 808.94 1115.44 808.291 1113.12L804.734 1102.1C802.48 1102.69 801.041 1103.36 798.996 1102.47C800.613 1099.89 808.352 1098.13 811.322 1097.34Z" fill="#5F3D31"/>
<path d="M839.672 1086.72C841.803 1085.76 849.095 1082.41 851.073 1082.77L851.734 1083.76C849.561 1086.86 842.574 1086.39 844.081 1090.56C845.911 1095.63 849.891 1089.98 853.1 1090.95L853.388 1092.27C852.065 1093.96 848.838 1094.7 846.542 1096.08L843.848 1097.21C842.666 1093.91 840.994 1090.02 839.672 1086.72Z" fill="#5F3D31"/>
<path d="M843.848 1097.21L846.542 1096.08L848.654 1101.46C852.022 1100.08 854.171 1098.91 857.814 1098.83L858.016 1099.44C854.263 1102.72 851.624 1103.29 846.97 1105.14C846.058 1102.77 844.895 1099.43 843.848 1097.21Z" fill="#5F3D31"/>
<path d="M420.236 1093.69L421.693 1094.24C422.776 1096.95 417.563 1109.58 416.195 1113.46L414.568 1112.46C413.508 1109.8 419.01 1097.02 420.236 1093.69Z" fill="#5F3D31"/>
<path d="M320.227 996.716C324.188 998.179 330.15 1000.54 334.197 1001.47L333.067 1003.71C328.787 1002.54 322.989 999.998 318.748 998.289L320.227 996.716Z" fill="#999C8D"/>
<path d="M387.958 622.304C386.503 619.83 385.671 618.765 385.008 616.028C386.62 617.038 387.55 619.334 388.599 621.177L387.958 622.304Z" fill="#CDB8AF"/>
</g>
<defs>
<clipPath id="clip0_2_7">
<rect width="1254" height="1254" fill="white"/>
</clipPath>
</defs>
</svg>
